<svg xmlns="http://www.w3.org/2000/svg" width="584" height="453" viewBox="0 0 584 453"><g><g clip-path="url(#clip-294)" opacity=".16"><path fill="#fff" d="M441.22 558.48s-64.707-22.964-123.266-26.452c-98.205-5.849-147.172-26.843-196.156-60.762C58.042 427.117 8.375 332.787.502 253.202c-.723-7.31-2.912-33.014 17.543-36.261 19.255-3.057 29.339 10.47 32.736 19.752 22.006 60.123 26.89 79.848 59.845 129.038 8.368 12.49 42.711 36.177 48.79 40.727 31.29 23.415 89.122 31.906 89.122 31.906 4.13-.078 7.416-3.484 7.341-7.608-.074-4.125-3.48-7.404-7.612-7.326 0 0-67.438-17.077-92.13-33.653-5.028-3.376-42.15-26.17-24.517-50.484 4.923-6.789 13.382-10.133 19.374-11.704 21.327-.755 102.07 32.03 116.047 32.089 9.835.04 87.366-7.15 131.779 97.185 27.7 65.073 42.4 101.617 42.4 101.617zm-14.089-109.203c-13.705-112.563 57.035-145.101 65.532-150.054 12.075-7.04 65.607-75.804 84.455-85.814 5.975-1.635 14.972-2.968 22.63.449 27.428 12.24 6.676 50.541 4.01 55.98-13.096 26.701-62.96 75.209-62.96 75.209-3.617 1.998-4.928 6.54-2.93 10.15 1.997 3.609 6.547 4.915 10.162 2.918 0 0 45.84-36.27 61.228-72.192 2.99-6.98 20.89-44.665 21.89-59.666 3.946-59.077-1.688-78.602-12.691-141.672-1.7-9.737.27-26.494 18.474-33.474 19.339-7.416 30.295 15.94 33.323 22.631 32.975 72.86 37.126 179.385 3.986 249.497-25.461 53.867-57.37 96.532-139.494 150.7-48.97 32.3-93.526 84.541-93.526 84.541s-5.541-38.998-14.089-109.203zM41.861 193.155c15.523-50.746 53.2-90.955 111.963-106.7 67.152-17.994 124.654-4.156 166.609 21.24C344.068 64.725 387.284 23.9 451.097 6.802c59-15.81 112.98.079 152.7 36.342-10.957 13.417-14.09 30.864-11.449 46.004 1.414 8.104 2.74 15.494 3.969 22.342 5.782 32.228 9.179 51.163 9.558 76.393-10.551-3.454-22.655-3.506-35.334-.109l-.401.11-2.846.777-2.605 1.384c-13.891 7.377-31.55 26.643-58.982 57.496-9.577 10.772-22.571 25.387-27.137 29.24l-.269.146c-7.788 4.255-31.488 17.203-50.975 45.336-15.917 22.98-25.148 50.108-27.703 80.978-17.646-25.457-39.205-44.334-64.48-56.277-30.942-14.621-57.941-13.985-66.813-13.776l-.306.008c-5.88-1.053-24.441-7.213-38.122-11.754-39.183-13.003-64.108-20.859-79.827-20.302l-2.948.104-2.853.75-.403.106c-12.68 3.398-23.137 9.495-30.547 17.763-12.28-22.03-18.807-40.128-29.917-70.94a4572.645 4572.645 0 0 0-7.734-21.332c-5.379-14.695-17.144-28.46-33.813-34.435z"/></g></g></svg>